<svg aria-hidden="true" style="position: absolute; width: 0; height: 0; overflow: hidden;" version="1.1" xmlns="http://www.w3.org/2000/svg" xmlns:xlink="http://www.w3.org/1999/xlink">
  <defs>
     <symbol id="icon-user" viewBox="0 0 32 32">
         <path fill="currentColor" d="M15.429 0c-3.051 0-6.034 0.905-8.572 2.6s-4.515 4.105-5.683 6.924c-1.168 2.819-1.473 5.921-0.878 8.914s2.065 5.742 4.222 7.9 4.907 3.627 7.9 4.222c2.993 0.595 6.095 0.29 8.914-0.878s5.229-3.145 6.924-5.683c1.695-2.537 2.6-5.52 2.6-8.572-0.005-4.091-1.632-8.012-4.524-10.905s-6.814-4.519-10.905-4.524zM8.51 25.224c0.796-1.088 1.837-1.973 3.039-2.583s2.531-0.928 3.879-0.928c1.348 0 2.677 0.318 3.879 0.928s2.244 1.495 3.039 2.583c-2.022 1.434-4.44 2.204-6.919 2.204s-4.897-0.77-6.919-2.204zM11.429 14.286c0-0.791 0.235-1.564 0.674-2.222s1.064-1.17 1.795-1.473c0.731-0.303 1.535-0.382 2.311-0.228s1.489 0.535 2.048 1.095c0.559 0.559 0.94 1.272 1.095 2.048s0.075 1.58-0.228 2.311c-0.303 0.731-0.815 1.356-1.473 1.795s-1.431 0.674-2.222 0.674c-1.061 0-2.078-0.422-2.828-1.172s-1.172-1.768-1.172-2.829zM24.857 22.849c-1.111-1.413-2.527-2.557-4.143-3.346 1.029-1.042 1.728-2.366 2.007-3.805s0.126-2.927-0.439-4.279c-0.565-1.352-1.517-2.507-2.737-3.319s-2.652-1.245-4.117-1.245c-1.465 0-2.898 0.433-4.117 1.245s-2.172 1.967-2.737 3.319c-0.565 1.352-0.718 2.841-0.438 4.279s0.977 2.762 2.007 3.805c-1.615 0.789-3.032 1.933-4.143 3.346-1.396-1.769-2.265-3.896-2.508-6.136s0.149-4.504 1.132-6.531 2.517-3.738 4.427-4.934c1.91-1.196 4.117-1.831 6.371-1.831s4.461 0.635 6.371 1.831c1.91 1.196 3.444 2.906 4.427 4.934s1.375 4.291 1.132 6.531c-0.243 2.24-1.113 4.367-2.508 6.136h0.014z"></path>
     </symbol>
     <symbol id="icon-cart" viewBox="0 0 35 32">
         <path fill="currentColor" d="M14.286 28c0 0.565-0.168 1.118-0.482 1.587s-0.76 0.836-1.282 1.052c-0.522 0.216-1.097 0.273-1.651 0.163s-1.063-0.382-1.463-0.782-0.672-0.909-0.782-1.463c-0.11-0.554-0.054-1.129 0.163-1.651s0.582-0.968 1.052-1.282c0.47-0.314 1.022-0.482 1.587-0.482 0.758 0 1.484 0.301 2.020 0.837s0.837 1.262 0.837 2.020zM26.286 25.143c-0.565 0-1.118 0.168-1.587 0.482s-0.836 0.76-1.052 1.282c-0.216 0.522-0.273 1.097-0.163 1.651s0.382 1.063 0.782 1.463 0.909 0.672 1.463 0.782c0.554 0.11 1.129 0.054 1.651-0.163s0.968-0.583 1.282-1.052c0.314-0.47 0.482-1.022 0.482-1.587 0-0.758-0.301-1.485-0.837-2.020s-1.262-0.837-2.020-0.837zM33.639 7.933l-3.898 12.671c-0.249 0.819-0.756 1.537-1.444 2.046s-1.523 0.782-2.38 0.779h-14.069c-0.869-0.003-1.713-0.287-2.407-0.81s-1.199-1.257-1.44-2.091l-4.884-17.099h-1.401c-0.455 0-0.891-0.181-1.212-0.502s-0.502-0.758-0.502-1.212c0-0.455 0.181-0.891 0.502-1.212s0.758-0.502 1.212-0.502h1.831c0.621 0.002 1.224 0.205 1.719 0.579s0.856 0.898 1.028 1.494l1.041 3.641h24.666c0.268 0 0.533 0.063 0.772 0.184s0.447 0.296 0.607 0.512 0.266 0.466 0.311 0.73c0.045 0.264 0.027 0.536-0.051 0.792zM29.679 9.143h-21.366l2.984 10.443c0.034 0.119 0.106 0.225 0.206 0.299s0.22 0.115 0.344 0.115h14.069c0.122 0 0.241-0.039 0.34-0.111s0.171-0.175 0.207-0.292l3.216-10.454z"></path>
     </symbol>

     <symbol id="icon-close" viewBox="0 0 32 32">
         <path fill="currentColor" d="M29.379 26.348c0.402 0.402 0.629 0.949 0.629 1.518s-0.226 1.115-0.629 1.518c-0.402 0.403-0.949 0.629-1.518 0.629s-1.115-0.226-1.518-0.629l-11.338-11.341-11.341 11.338c-0.403 0.402-0.949 0.629-1.518 0.629s-1.115-0.226-1.518-0.629c-0.403-0.403-0.629-0.949-0.629-1.518s0.226-1.115 0.629-1.518l11.341-11.337-11.338-11.341c-0.403-0.403-0.629-0.949-0.629-1.518s0.226-1.115 0.629-1.518c0.403-0.403 0.949-0.629 1.518-0.629s1.115 0.226 1.518 0.629l11.338 11.341 11.341-11.343c0.402-0.403 0.949-0.629 1.518-0.629s1.115 0.226 1.518 0.629c0.403 0.403 0.629 0.949 0.629 1.518s-0.226 1.115-0.629 1.518l-11.341 11.343 11.338 11.341z"></path>
     </symbol>
     <symbol id="icon-Vector" viewBox="0 0 55 32">
         <path fill="currentColor" d="M51.578 5.866l-22.857 22.857c-0.319 0.32-0.697 0.573-1.114 0.746s-0.864 0.262-1.315 0.262-0.898-0.089-1.315-0.262c-0.417-0.173-0.795-0.427-1.114-0.746l-22.857-22.857c-0.644-0.644-1.006-1.518-1.006-2.429s0.362-1.784 1.006-2.429c0.644-0.644 1.518-1.006 2.429-1.006s1.784 0.362 2.429 1.006l20.431 20.431 20.431-20.434c0.644-0.644 1.518-1.006 2.429-1.006s1.784 0.362 2.428 1.006 1.006 1.518 1.006 2.429c0 0.911-0.362 1.784-1.006 2.429l-0.005 0.003z"></path>
     </symbol>

     <symbol id="icon-search" viewBox="0 0 32 32">
         <path fill="currentColor" d="M30.385 27.959l-6.784-6.787c2.034-2.651 2.984-5.976 2.656-9.301s-1.907-6.401-4.419-8.604c-2.512-2.203-5.768-3.368-9.108-3.259s-6.512 1.485-8.875 3.847c-2.363 2.363-3.738 5.536-3.847 8.875s1.056 6.596 3.259 9.108c2.203 2.512 5.279 4.092 8.605 4.419s6.651-0.622 9.301-2.656l6.79 6.791c0.159 0.16 0.349 0.286 0.557 0.372s0.432 0.131 0.657 0.131 0.449-0.044 0.657-0.131c0.208-0.086 0.398-0.213 0.557-0.372s0.286-0.349 0.372-0.557c0.086-0.208 0.131-0.432 0.131-0.657s-0.044-0.449-0.131-0.657c-0.086-0.208-0.213-0.398-0.372-0.557l-0.006-0.004zM3.457 13.172c0-1.921 0.57-3.799 1.637-5.397s2.585-2.843 4.36-3.578c1.775-0.735 3.728-0.928 5.613-0.553s3.615 1.3 4.974 2.659c1.359 1.359 2.284 3.090 2.659 4.974s0.183 3.838-0.553 5.613c-0.735 1.775-1.98 3.292-3.578 4.36s-3.476 1.637-5.397 1.637c-2.576-0.003-5.045-1.027-6.866-2.848s-2.846-4.291-2.848-6.866z"></path>
     </symbol>
     <symbol id="four-starshaf" viewBox="0 0 175 32">
          <path d="M15.57 0l4.411 9.499 10.397 1.26-7.671 7.131 2.014 10.278-9.152-5.092-9.152 5.092 2.014-10.278-7.671-7.131 10.397-1.26 4.411-9.499z"></path>
          <path d="M55.658 0l4.411 9.499 10.397 1.26-7.671 7.131 2.014 10.278-9.152-5.092-9.152 5.092 2.014-10.278-7.671-7.131 10.397-1.26 4.411-9.499z"></path>
          <path d="M95.745 0l4.411 9.499 10.397 1.26-7.671 7.131 2.014 10.278-9.152-5.092-9.152 5.092 2.014-10.278-7.671-7.131 10.397-1.26 4.411-9.499z"></path>
          <path d="M135.833 0l4.411 9.499 10.397 1.26-7.671 7.131 2.014 10.278-9.152-5.092-9.152 5.092 2.014-10.278-7.671-7.131 10.397-1.26 4.411-9.499z"></path>
          <path d="M166.006 28.167l9.152-5.092v-23.075l-4.411 9.499-10.397 1.26 7.671 7.131-2.014 10.278z"></path>
     </symbol>
     <symbol id="three-starshaf" viewBox="0 0 175 32">
          <path d="M15.57 0l4.411 9.499 10.397 1.26-7.671 7.131 2.014 10.278-9.152-5.092-9.152 5.092 2.014-10.278-7.671-7.131 10.397-1.26 4.411-9.499z"></path>
          <path d="M55.658 0l4.411 9.499 10.397 1.26-7.671 7.131 2.014 10.278-9.152-5.092-9.152 5.092 2.014-10.278-7.671-7.131 10.397-1.26 4.411-9.499z"></path>
          <path d="M95.745 0l4.411 9.499 10.397 1.26-7.671 7.131 2.014 10.278-9.152-5.092-9.152 5.092 2.014-10.278-7.671-7.131 10.397-1.26 4.411-9.499z"></path>
          <path d="M125.918 28.167l9.152-5.092v-23.075l-4.411 9.499-10.397 1.26 7.671 7.131-2.014 10.278z"></path>
     </symbol>
     <symbol id="five-stars" viewBox="0 0 175 32">
           <path d="M15.57 0l4.411 9.499 10.397 1.26-7.671 7.131 2.014 10.278-9.152-5.092-9.152 5.092 2.014-10.278-7.671-7.131 10.397-1.26 4.411-9.499z"></path>
           <path d="M55.658 0l4.411 9.499 10.397 1.26-7.671 7.131 2.014 10.278-9.152-5.092-9.152 5.092 2.014-10.278-7.671-7.131 10.397-1.26 4.411-9.499z"></path>
           <path d="M95.745 0l4.411 9.499 10.397 1.26-7.671 7.131 2.014 10.278-9.152-5.092-9.152 5.092 2.014-10.278-7.671-7.131 10.397-1.26 4.411-9.499z"></path>
           <path d="M135.833 0l4.411 9.499 10.397 1.26-7.671 7.131 2.014 10.278-9.152-5.092-9.152 5.092 2.014-10.278-7.671-7.131 10.397-1.26 4.411-9.499z"></path>
           <path d="M175.919 0l4.413 9.499 10.397 1.26-7.672 7.131 2.016 10.278-9.154-5.092-9.151 5.092 2.015-10.278-7.672-7.131 10.397-1.26 4.411-9.499z"></path>
      </symbol>
      <symbol id="three-stars" viewBox="0 0 175 32">
           <path d="M15.57 0l4.411 9.499 10.397 1.26-7.671 7.131 2.014 10.278-9.152-5.092-9.152 5.092 2.014-10.278-7.671-7.131 10.397-1.26 4.411-9.499z"></path>
           <path d="M55.658 0l4.411 9.499 10.397 1.26-7.671 7.131 2.014 10.278-9.152-5.092-9.152 5.092 2.014-10.278-7.671-7.131 10.397-1.26 4.411-9.499z"></path>
           <path d="M95.745 0l4.411 9.499 10.397 1.26-7.671 7.131 2.014 10.278-9.152-5.092-9.152 5.092 2.014-10.278-7.671-7.131 10.397-1.26 4.411-9.499z"></path>
      </symbol>
      <symbol id="four-stars" viewBox="0 0 175 32">
           <path d="M15.57 0l4.411 9.499 10.397 1.26-7.671 7.131 2.014 10.278-9.152-5.092-9.152 5.092 2.014-10.278-7.671-7.131 10.397-1.26 4.411-9.499z"></path>
           <path d="M55.658 0l4.411 9.499 10.397 1.26-7.671 7.131 2.014 10.278-9.152-5.092-9.152 5.092 2.014-10.278-7.671-7.131 10.397-1.26 4.411-9.499z"></path>
           <path d="M95.745 0l4.411 9.499 10.397 1.26-7.671 7.131 2.014 10.278-9.152-5.092-9.152 5.092 2.014-10.278-7.671-7.131 10.397-1.26 4.411-9.499z"></path>
           <path d="M135.833 0l4.411 9.499 10.397 1.26-7.671 7.131 2.014 10.278-9.152-5.092-9.152 5.092 2.014-10.278-7.671-7.131 10.397-1.26 4.411-9.499z"></path>
      </symbol>
      <symbol id="vector-coment" viewBox="0 0 32 32">
           <path d="M15.6 0c-3.085 0-6.101 0.915-8.667 2.629s-4.565 4.151-5.746 7.001c-1.181 2.851-1.49 5.987-0.888 9.013s2.088 5.806 4.269 7.988 4.961 3.668 7.987 4.269c3.026 0.602 6.163 0.293 9.013-0.888s5.287-3.18 7.001-5.746c1.714-2.565 2.629-5.581 2.629-8.667-0.004-4.136-1.649-8.101-4.574-11.026s-6.89-4.57-11.026-4.574zM22.449 12.849l-8.4 8.4c-0.111 0.112-0.244 0.2-0.389 0.26s-0.302 0.092-0.46 0.092-0.314-0.031-0.46-0.092c-0.146-0.060-0.278-0.149-0.389-0.26l-3.6-3.6c-0.225-0.225-0.352-0.531-0.352-0.849s0.127-0.624 0.352-0.849c0.225-0.225 0.531-0.352 0.849-0.352s0.624 0.127 0.849 0.352l2.751 2.753 7.551-7.553c0.112-0.111 0.244-0.2 0.389-0.26s0.302-0.091 0.46-0.091c0.158 0 0.314 0.031 0.46 0.091s0.278 0.149 0.389 0.26 0.2 0.244 0.26 0.39c0.060 0.146 0.091 0.302 0.091 0.459s-0.031 0.314-0.091 0.459c-0.060 0.146-0.149 0.278-0.26 0.39z"></path>
      </symbol>
      <symbol id="icon-email" viewBox="0 0 42 32">
           <path fill="currentColor" d="M38.25 0h-36c-0.597 0-1.169 0.237-1.591 0.659s-0.659 0.994-0.659 1.591v25.5c0 0.995 0.395 1.948 1.098 2.652s1.657 1.098 2.652 1.098h33c0.995 0 1.948-0.395 2.652-1.098s1.098-1.657 1.098-2.652v-25.5c0-0.597-0.237-1.169-0.659-1.591s-0.994-0.659-1.591-0.659zM20.25 15.697l-12.216-11.197h24.431l-12.216 11.197zM13.648 15.75l-9.148 8.385v-16.77l9.148 8.385zM16.978 18.802l1.751 1.607c0.415 0.381 0.958 0.592 1.521 0.592s1.106-0.211 1.521-0.592l1.751-1.607 8.944 8.198h-24.431l8.944-8.197zM26.852 15.75l9.148-8.385v16.77l-9.148-8.385z"></path>
      </symbol>
      <symbol id="icon-twitter" viewBox="0 0 38 32">
          <path d="M35.756 3.352c-1.341 0.596-2.756 0.968-4.246 1.192 1.49-0.894 2.682-2.309 3.203-4.023-1.415 0.819-2.98 1.415-4.693 1.788-1.341-1.415-3.278-2.309-5.364-2.309-4.023 0-7.3 3.278-7.3 7.3 0 0.596 0.075 1.117 0.224 1.639-6.034-0.298-11.472-3.203-15.122-7.673-0.596 1.117-0.968 2.309-0.968 3.65 0 2.533 1.266 4.768 3.278 6.108-1.192-0.074-2.309-0.372-3.352-0.894v0.074c0 3.576 2.533 6.555 5.885 7.226-0.596 0.149-1.266 0.224-1.937 0.224-0.447 0-0.968-0.075-1.415-0.149 0.968 2.905 3.65 5.066 6.853 5.066-2.533 1.937-5.661 3.129-9.088 3.129-0.596 0-1.192 0-1.713-0.075 3.278 2.086 7.077 3.278 11.248 3.278 13.483 0 20.858-11.174 20.858-20.858 0-0.298 0-0.67 0-0.968 1.415-0.968 2.682-2.235 3.65-3.725z"></path>
      </symbol>
      <symbol id="icon-instagram" viewBox="0 0 32 32">
          <path d="M15.484 2.79c4.134 0 4.624 0.015 6.257 0.090 0.982 0.012 1.954 0.192 2.876 0.533 0.668 0.258 1.274 0.652 1.781 1.158s0.901 1.113 1.158 1.781c0.341 0.921 0.521 1.894 0.533 2.876 0.074 1.633 0.090 2.123 0.090 6.257s-0.016 4.624-0.090 6.257c-0.012 0.982-0.192 1.955-0.533 2.876-0.258 0.668-0.652 1.274-1.158 1.781s-1.113 0.901-1.781 1.158c-0.921 0.341-1.894 0.521-2.876 0.533-1.632 0.074-2.122 0.090-6.257 0.090s-4.624-0.016-6.257-0.090c-0.982-0.012-1.955-0.192-2.876-0.533-0.668-0.258-1.274-0.652-1.781-1.158s-0.901-1.113-1.158-1.781c-0.341-0.921-0.521-1.894-0.533-2.876-0.074-1.633-0.090-2.123-0.090-6.257s0.015-4.624 0.090-6.257c0.012-0.982 0.192-1.955 0.533-2.876 0.258-0.668 0.652-1.274 1.158-1.781s1.113-0.901 1.781-1.158c0.921-0.341 1.894-0.521 2.876-0.533 1.633-0.074 2.123-0.090 6.257-0.090zM15.484 0c-4.203 0-4.732 0.018-6.384 0.093-1.285 0.026-2.557 0.269-3.76 0.72-1.033 0.389-1.968 0.999-2.741 1.787-0.788 0.773-1.399 1.709-1.788 2.742-0.451 1.204-0.694 2.475-0.72 3.76-0.074 1.65-0.091 2.18-0.091 6.382s0.018 4.732 0.093 6.384c0.026 1.285 0.269 2.557 0.72 3.76 0.389 1.033 0.999 1.969 1.787 2.742 0.773 0.788 1.709 1.398 2.742 1.787 1.204 0.451 2.475 0.694 3.76 0.72 1.652 0.074 2.179 0.093 6.384 0.093s4.732-0.018 6.384-0.093c1.285-0.026 2.557-0.269 3.76-0.72 1.028-0.398 1.962-1.007 2.741-1.787s1.388-1.714 1.786-2.743c0.451-1.204 0.694-2.475 0.72-3.76 0.074-1.65 0.091-2.18 0.091-6.382s-0.018-4.732-0.093-6.384c-0.025-1.285-0.269-2.557-0.72-3.76-0.389-1.033-0.999-1.969-1.787-2.742-0.773-0.788-1.709-1.398-2.742-1.787-1.204-0.451-2.475-0.694-3.76-0.72-1.65-0.074-2.18-0.091-6.382-0.091z"></path>
          <path d="M15.487 7.536c-1.573 0-3.11 0.466-4.418 1.34s-2.327 2.116-2.929 3.568c-0.602 1.453-0.759 3.052-0.452 4.594s1.064 2.959 2.176 4.071c1.112 1.112 2.529 1.869 4.071 2.176s3.141 0.149 4.594-0.453c1.453-0.602 2.695-1.621 3.568-2.929s1.34-2.845 1.34-4.418c0-2.109-0.838-4.131-2.329-5.622s-3.514-2.329-5.622-2.329zM15.487 20.648c-1.021 0-2.019-0.303-2.867-0.87s-1.51-1.373-1.901-2.316c-0.391-0.943-0.493-1.981-0.294-2.982s0.691-1.921 1.413-2.643c0.722-0.722 1.642-1.213 2.643-1.413s2.039-0.097 2.982 0.294c0.943 0.391 1.749 1.052 2.316 1.901s0.87 1.847 0.87 2.867c0 1.369-0.544 2.682-1.512 3.65s-2.281 1.512-3.65 1.512z"></path>
          <path d="M23.751 9.078c1.026 0 1.858-0.832 1.858-1.858s-0.832-1.858-1.858-1.858c-1.026 0-1.858 0.832-1.858 1.858s0.832 1.858 1.858 1.858z"></path>
      </symbol>
      <symbol id="icon-git-hub" viewBox="0 0 32 32">
          <path d="M15.951 0c-8.839 0-15.951 7.111-15.951 15.951 0 7.045 4.586 13.026 10.9 15.153 0.797 0.133 1.063-0.332 1.063-0.798 0-0.399 0-1.396 0-2.725-4.453 0.997-5.383-2.127-5.383-2.127-0.731-1.861-1.794-2.326-1.794-2.326-1.462-0.997 0.133-0.997 0.133-0.997 1.595 0.133 2.459 1.662 2.459 1.662 1.396 2.459 3.722 1.728 4.652 1.329 0.133-1.063 0.532-1.728 0.997-2.127-3.522-0.399-7.244-1.794-7.244-7.909 0-1.728 0.598-3.19 1.662-4.253-0.133-0.399-0.731-1.994 0.133-4.253 0 0 1.329-0.399 4.386 1.662 1.263-0.332 2.658-0.532 3.988-0.532s2.725 0.199 3.988 0.532c3.057-2.060 4.386-1.662 4.386-1.662 0.864 2.193 0.332 3.788 0.133 4.253 0.997 1.13 1.661 2.526 1.661 4.253 0 6.114-3.722 7.444-7.311 7.842 0.598 0.465 1.063 1.462 1.063 2.924 0 2.127 0 3.855 0 4.386 0 0.399 0.266 0.93 1.13 0.798 6.314-2.060 10.9-8.042 10.9-15.087 0-8.839-7.111-15.951-15.951-15.951z"></path>
      </symbol>
      <symbol id="icon-facebook" viewBox="0 0 17 32">
          <path d="M4.6 29.969v-13.67h-4.6v-5.328h4.6v-3.929c0-4.559 2.785-7.042 6.852-7.042 1.948 0 3.623 0.145 4.111 0.21v4.765l-2.821 0.001c-2.212 0-2.64 1.051-2.64 2.594v3.401h5.276l-0.687 5.328h-4.589v13.67h-5.502z"></path>
      </symbol>



      <symbol id="apple-pay" viewBox="0 0 72 32">
         <path d="M14.541 5.809c-1.979-0.118-3.662 1.123-4.607 1.123s-2.393-1.064-3.958-1.035c-2.037 0.030-3.928 1.182-4.962 3.014-2.127 3.665-0.561 9.102 1.507 12.087 1.004 1.477 2.215 3.103 3.809 3.045 1.507-0.059 2.097-0.976 3.929-0.976 1.83 0 2.362 0.976 3.957 0.946 1.654-0.030 2.688-1.478 3.692-2.956 1.152-1.684 1.624-3.309 1.653-3.398-0.030-0.030-3.189-1.242-3.219-4.876-0.030-3.043 2.481-4.491 2.599-4.581-1.418-2.097-3.633-2.333-4.401-2.393z"></path>
         <path d="M13.313 3.853c0.829-1.037 1.392-2.43 1.244-3.853-1.214 0.060-2.695 0.801-3.553 1.839-0.77 0.889-1.452 2.34-1.274 3.704 1.363 0.118 2.724-0.681 3.583-1.689z"></path>
         <path d="M31.773 1.69c4.302 0 7.297 2.965 7.297 7.282 0 4.332-3.057 7.313-7.405 7.313h-4.763v7.574h-3.441v-22.169h8.311zM26.903 13.397h3.948c2.996 0 4.701-1.613 4.701-4.409s-1.705-4.394-4.686-4.394h-3.964v8.803z"></path>
         <path d="M39.969 19.265c0-2.827 2.166-4.563 6.007-4.778l4.424-0.261v-1.244c0-1.798-1.214-2.873-3.241-2.873-1.921 0-3.119 0.922-3.411 2.366h-3.134c0.184-2.919 2.673-5.070 6.667-5.070 3.918 0 6.421 2.074 6.421 5.316v11.138h-3.18v-2.658h-0.077c-0.937 1.798-2.981 2.934-5.1 2.934-3.165 0-5.377-1.966-5.377-4.87zM50.4 17.806v-1.275l-3.979 0.246c-1.982 0.138-3.103 1.014-3.103 2.397 0 1.413 1.168 2.335 2.95 2.335 2.319 0 4.133-1.598 4.133-3.702z"></path>
         <path d="M56.705 29.804v-2.689c0.246 0.061 0.798 0.061 1.075 0.061 1.536 0 2.366-0.645 2.873-2.304 0-0.031 0.292-0.983 0.292-0.999l-5.838-16.177h3.594l4.087 13.151h0.061l4.087-13.151h3.503l-6.054 17.006c-1.382 3.918-2.98 5.177-6.329 5.177-0.277 0-1.106-0.031-1.352-0.077z"></path>
      </symbol>
      <symbol id="g-pay" viewBox="0 0 77 32">
         <path fill="#3c4043" style="fill: var(--color1, #3c4043)" d="M35.546 23.343h-2.796v-21.755h7.412c1.878 0 3.48 0.626 4.791 1.878 1.339 1.252 2.009 2.781 2.009 4.587 0 1.849-0.67 3.378-2.009 4.616-1.296 1.238-2.898 1.849-4.791 1.849h-4.616v8.824zM35.546 4.267v7.587h4.674c1.107 0 2.039-0.379 2.767-1.121 0.743-0.743 1.121-1.646 1.121-2.665 0-1.005-0.378-1.893-1.121-2.636-0.728-0.772-1.646-1.15-2.767-1.15h-4.674v-0.015z"></path>
         <path fill="#3c4043" style="fill: var(--color1, #3c4043)" d="M54.272 7.965c2.068 0 3.699 0.553 4.893 1.66s1.791 2.621 1.791 4.543v9.174h-2.665v-2.068h-0.117c-1.15 1.704-2.694 2.548-4.616 2.548-1.646 0-3.014-0.481-4.121-1.456s-1.66-2.184-1.66-3.64c0-1.544 0.582-2.767 1.747-3.67 1.165-0.917 2.723-1.369 4.66-1.369 1.66 0 3.029 0.306 4.092 0.917v-0.641c0-0.976-0.378-1.791-1.15-2.476s-1.674-1.019-2.708-1.019c-1.558 0-2.796 0.655-3.699 1.98l-2.461-1.544c1.354-1.966 3.364-2.941 6.014-2.941zM50.66 18.77c0 0.728 0.306 1.34 0.932 1.82 0.611 0.481 1.34 0.728 2.17 0.728 1.18 0 2.228-0.437 3.145-1.311s1.383-1.893 1.383-3.073c-0.874-0.684-2.082-1.034-3.641-1.034-1.136 0-2.082 0.277-2.839 0.815-0.772 0.568-1.15 1.252-1.15 2.053z"></path>
         <path fill="#3c4043" style="fill: var(--color1, #3c4043)" d="M76.158 8.446l-9.319 21.435h-2.883l3.466-7.499-6.145-13.936h3.043l4.427 10.688h0.058l4.31-10.688h3.043z"></path>
         <path fill="#4285f4" style="fill: var(--color2, #4285f4)" d="M24.425 12.756c0-0.912-0.082-1.784-0.233-2.623h-11.719v4.805l6.749 0.001c-0.274 1.599-1.155 2.962-2.505 3.871v3.118h4.018c2.346-2.171 3.69-5.381 3.69-9.172z"></path>
         <path fill="#34a853" style="fill: var(--color3, #34a853)" d="M16.718 18.811c-1.118 0.754-2.559 1.196-4.243 1.196-3.255 0-6.015-2.193-7.004-5.149h-4.144v3.215c2.053 4.074 6.273 6.87 11.148 6.87 3.37 0 6.2-1.108 8.261-3.016l-4.018-3.116z"></path>
         <path fill="#fabb05" style="fill: var(--color4, #fabb05)" d="M5.081 12.472c0-0.83 0.138-1.632 0.39-2.387v-3.215h-4.144c-0.849 1.685-1.327 3.587-1.327 5.602s0.479 3.917 1.327 5.602l4.144-3.215c-0.252-0.754-0.39-1.557-0.39-2.387z"></path>
         <path fill="#e94235" style="fill: var(--color5, #e94235)" d="M12.475 4.936c1.839 0 3.486 0.633 4.786 1.871l3.56-3.557c-2.162-2.014-4.982-3.25-8.347-3.25-4.874 0-9.095 2.796-11.149 6.87l4.144 3.215c0.989-2.956 3.75-5.149 7.004-5.149z"></path>
      </symbol>
      <symbol id="mastercard" viewBox="0 0 52 32">
         <path fill="#ff5f00" style="fill: var(--color6, #ff5f00)" d="M32.245 3.354h-13.727v24.667h13.727v-24.667z"></path>
         <path fill="#eb001b" style="fill: var(--color7, #eb001b)" d="M19.39 15.688c-0.002-2.376 0.536-4.721 1.574-6.857s2.549-4.009 4.418-5.476c-2.314-1.819-5.094-2.95-8.020-3.264s-5.883 0.202-8.53 1.488-4.88 3.292-6.441 5.787c-1.562 2.495-2.39 5.379-2.39 8.323s0.828 5.828 2.39 8.323c1.562 2.495 3.794 4.501 6.441 5.787s5.604 1.802 8.53 1.488c2.927-0.314 5.706-1.445 8.020-3.264-1.869-1.467-3.379-3.339-4.418-5.476s-1.576-4.482-1.574-6.857z"></path>
         <path fill="#f79e1b" style="fill: var(--color8, #f79e1b)" d="M50.763 15.688c0 2.944-0.828 5.828-2.389 8.323s-3.794 4.5-6.441 5.787c-2.648 1.286-5.604 1.802-8.53 1.488s-5.706-1.445-8.020-3.264c1.867-1.468 3.376-3.341 4.414-5.478s1.577-4.481 1.577-6.856-0.539-4.719-1.577-6.856c-1.038-2.136-2.547-4.009-4.414-5.478 2.314-1.819 5.093-2.95 8.020-3.264s5.883 0.202 8.53 1.488c2.647 1.286 4.88 3.292 6.441 5.787s2.39 5.379 2.389 8.323z"></path>
         <path fill="#f79e1b" style="fill: var(--color8, #f79e1b)" d="M49.266 25.408v-0.505h0.204v-0.103h-0.519v0.103h0.204v0.505h0.111zM50.273 25.408v-0.609h-0.159l-0.183 0.419-0.183-0.419h-0.159v0.609h0.112v-0.459l0.171 0.396h0.116l0.171-0.397v0.46h0.112z"></path>
      </symbol>
      <symbol id="paypal" viewBox="0 0 112 32">
         <path fill="#253b80" style="fill: var(--color9, #253b80)" d="M13.268 0.003h-8.6c-0.588 0-1.089 0.428-1.181 1.008l-3.478 22.050c-0.069 0.435 0.268 0.827 0.709 0.827h4.106c0.588 0 1.089-0.428 1.181-1.010l0.938-5.947c0.090-0.582 0.592-1.010 1.18-1.010h2.722c5.665 0 8.934-2.741 9.789-8.173 0.385-2.376 0.016-4.244-1.097-5.552-1.222-1.435-3.39-2.195-6.269-2.195zM14.26 8.057c-0.47 3.086-2.828 3.086-5.108 3.086h-1.298l0.91-5.763c0.054-0.348 0.356-0.605 0.708-0.605h0.595c1.553 0 3.018 0 3.775 0.885 0.451 0.528 0.589 1.313 0.417 2.397zM38.976 7.958h-4.118c-0.351 0-0.654 0.257-0.708 0.605l-0.182 1.152-0.288-0.417c-0.892-1.294-2.879-1.726-4.864-1.726-4.551 0-8.438 3.446-9.195 8.281-0.393 2.411 0.166 4.717 1.534 6.325 1.255 1.479 3.051 2.095 5.187 2.095 3.667 0 5.701-2.358 5.701-2.358l-0.184 1.145c-0.069 0.438 0.268 0.83 0.707 0.83h3.71c0.59 0 1.088-0.428 1.181-1.010l2.226-14.094c0.070-0.434-0.266-0.827-0.705-0.827zM33.235 15.972c-0.397 2.352-2.265 3.932-4.646 3.932-1.196 0-2.152-0.384-2.765-1.11-0.609-0.722-0.84-1.749-0.647-2.893 0.371-2.333 2.27-3.963 4.615-3.963 1.169 0 2.12 0.388 2.746 1.121 0.627 0.741 0.876 1.774 0.697 2.913zM56.771 7.957h4.139c0.58 0 0.918 0.65 0.588 1.125l-13.764 19.866c-0.223 0.322-0.59 0.513-0.982 0.513h-4.133c-0.582 0-0.922-0.655-0.585-1.132l4.286-6.049-4.558-13.376c-0.158-0.465 0.186-0.948 0.68-0.948h4.067c0.528 0 0.995 0.347 1.147 0.852l2.419 8.079 5.708-8.407c0.223-0.328 0.595-0.524 0.989-0.524z"></path>
         <path fill="#179bd7" style="fill: var(--color10, #179bd7)" d="M101.643 23.060l3.53-22.454c0.054-0.349 0.356-0.605 0.707-0.606h3.973c0.439 0 0.776 0.393 0.707 0.829l-3.481 22.049c-0.091 0.582-0.591 1.010-1.181 1.010h-3.548c-0.439 0-0.776-0.392-0.707-0.827zM74.612 0.001h-8.602c-0.587 0-1.088 0.428-1.18 1.008l-3.478 22.050c-0.069 0.435 0.268 0.827 0.707 0.827h4.413c0.41 0 0.761-0.299 0.825-0.706l0.987-6.25c0.091-0.582 0.592-1.010 1.18-1.010h2.721c5.667 0 8.935-2.741 9.79-8.173 0.386-2.376 0.015-4.244-1.098-5.552-1.221-1.435-3.388-2.195-6.266-2.195zM75.604 8.055c-0.469 3.086-2.827 3.086-5.108 3.086h-1.296l0.912-5.763c0.054-0.348 0.353-0.605 0.707-0.605h0.595c1.552 0 3.018 0 3.775 0.885 0.452 0.528 0.589 1.313 0.417 2.397zM100.317 7.956h-4.115c-0.354 0-0.654 0.257-0.707 0.605l-0.182 1.152-0.289-0.417c-0.892-1.294-2.878-1.726-4.863-1.726-4.551 0-8.437 3.446-9.194 8.281-0.392 2.411 0.165 4.717 1.533 6.325 1.258 1.479 3.051 2.095 5.188 2.095 3.667 0 5.7-2.358 5.7-2.358l-0.183 1.145c-0.069 0.438 0.268 0.83 0.709 0.83h3.708c0.587 0 1.088-0.428 1.18-1.010l2.227-14.094c0.068-0.434-0.269-0.827-0.711-0.827zM94.577 15.97c-0.395 2.352-2.265 3.932-4.647 3.932-1.193 0-2.151-0.383-2.765-1.11-0.609-0.721-0.837-1.749-0.646-2.893 0.373-2.333 2.269-3.963 4.615-3.963 1.17 0 2.12 0.388 2.747 1.121 0.629 0.741 0.879 1.774 0.696 2.913z"></path>
      </symbol>
      <symbol id="visa" viewBox="0 0 96 32">
         <path fill="#1434cb" style="fill: var(--color11, #1434cb)" d="M46.869 0.541l-6.325 29.567h-7.648l6.326-29.567h7.647zM79.048 19.632l4.027-11.103 2.317 11.103h-6.344zM87.582 30.108h7.075l-6.173-29.567h-6.53c-1.467 0-2.705 0.853-3.257 2.169l-11.475 27.398h8.032l1.594-4.415h9.813l0.921 4.415zM67.62 20.454c0.033-7.804-10.792-8.233-10.717-11.719 0.022-1.062 1.034-2.189 3.244-2.478 1.098-0.143 4.116-0.253 7.542 1.324l1.342-6.27c-1.841-0.668-4.209-1.311-7.155-1.311-7.559 0-12.88 4.019-12.925 9.774-0.048 4.256 3.798 6.631 6.696 8.046 2.98 1.45 3.981 2.378 3.968 3.674-0.020 1.985-2.377 2.859-4.576 2.893-3.846 0.061-6.078-1.038-7.857-1.867l-1.386 6.479c1.786 0.821 5.085 1.534 8.507 1.57 8.034 0 13.29-3.97 13.316-10.116zM35.94 0.541l-12.392 29.567h-8.086l-6.098-23.596c-0.371-1.453-0.693-1.985-1.818-2.598-1.837-0.997-4.874-1.933-7.545-2.514l0.182-0.859h13.014c1.658 0 3.151 1.104 3.527 3.014l3.221 17.11 7.959-20.124h8.036z"></path>
      </symbol>

      <symbol id="icon-plus" viewBox="0 0 32 32">
          <path d="M31.579 15.789c0 0.503-0.2 0.984-0.555 1.34s-0.837 0.555-1.34 0.555h-12v12c0 0.503-0.2 0.984-0.555 1.34s-0.837 0.555-1.34 0.555-0.984-0.2-1.34-0.555c-0.355-0.355-0.555-0.837-0.555-1.34v-12h-12c-0.503 0-0.984-0.2-1.34-0.555s-0.555-0.837-0.555-1.34 0.2-0.984 0.555-1.34c0.355-0.355 0.837-0.555 1.34-0.555h12v-12c0-0.503 0.2-0.984 0.555-1.34s0.837-0.555 1.34-0.555c0.503 0 0.984 0.2 1.34 0.555s0.555 0.837 0.555 1.34v12h12c0.503 0 0.984 0.2 1.34 0.555s0.555 0.837 0.555 1.34z"></path>
      </symbol>
      <symbol id="icon-minus" viewBox="0 0 203 32">
          <path d="M200 12c0 3.183-1.264 6.235-3.515 8.485s-5.302 3.515-8.485 3.515h-176c-3.183 0-6.235-1.264-8.485-3.515s-3.515-5.303-3.515-8.485 1.264-6.235 3.515-8.485c2.25-2.25 5.303-3.515 8.485-3.515h176c3.183 0 6.235 1.264 8.485 3.515s3.515 5.303 3.515 8.485z"></path>
      </symbol>
      <symbol id="icon-filter" viewBox="0 0 35 32">
         <path fill="currentColor" d="M18.947 15.158v14.526c0 0.503-0.2 0.984-0.555 1.34s-0.837 0.555-1.34 0.555c-0.503 0-0.984-0.2-1.34-0.555s-0.555-0.837-0.555-1.34v-14.526c0-0.503 0.2-0.984 0.555-1.34s0.837-0.555 1.34-0.555c0.503 0 0.984 0.2 1.34 0.555s0.555 0.837 0.555 1.34zM28.421 25.895c-0.503 0-0.984 0.2-1.34 0.555s-0.555 0.837-0.555 1.34v1.895c0 0.503 0.2 0.984 0.555 1.34s0.837 0.555 1.34 0.555c0.503 0 0.984-0.2 1.34-0.555s0.555-0.837 0.555-1.34v-1.895c0-0.503-0.2-0.984-0.555-1.34s-0.837-0.555-1.34-0.555zM32.211 19.579h-1.895v-17.684c0-0.503-0.2-0.984-0.555-1.34s-0.837-0.555-1.34-0.555c-0.503 0-0.984 0.2-1.34 0.555s-0.555 0.837-0.555 1.34v17.684h-1.895c-0.503 0-0.984 0.2-1.34 0.555s-0.555 0.837-0.555 1.34c0 0.503 0.2 0.984 0.555 1.34s0.837 0.555 1.34 0.555h7.579c0.503 0 0.984-0.2 1.34-0.555s0.555-0.837 0.555-1.34c0-0.503-0.2-0.984-0.555-1.34s-0.837-0.555-1.34-0.555zM5.684 20.842c-0.503 0-0.984 0.2-1.34 0.555s-0.555 0.837-0.555 1.34v6.947c0 0.503 0.2 0.984 0.555 1.34s0.837 0.555 1.34 0.555c0.503 0 0.984-0.2 1.34-0.555s0.555-0.837 0.555-1.34v-6.947c0-0.503-0.2-0.984-0.555-1.34s-0.837-0.555-1.34-0.555zM9.474 14.526h-1.895v-12.632c0-0.503-0.2-0.984-0.555-1.34s-0.837-0.555-1.34-0.555c-0.503 0-0.984 0.2-1.34 0.555s-0.555 0.837-0.555 1.34v12.632h-1.895c-0.503 0-0.984 0.2-1.34 0.555s-0.555 0.837-0.555 1.34c0 0.503 0.2 0.984 0.555 1.34s0.837 0.555 1.34 0.555h7.579c0.503 0 0.984-0.2 1.34-0.555s0.555-0.837 0.555-1.34c0-0.503-0.2-0.984-0.555-1.34s-0.837-0.555-1.34-0.555zM20.842 6.947h-1.895v-5.053c0-0.503-0.2-0.984-0.555-1.34s-0.837-0.555-1.34-0.555c-0.503 0-0.984 0.2-1.34 0.555s-0.555 0.837-0.555 1.34v5.053h-1.895c-0.503 0-0.984 0.2-1.34 0.555s-0.555 0.837-0.555 1.34c0 0.503 0.2 0.984 0.555 1.34s0.837 0.555 1.34 0.555h7.579c0.503 0 0.984-0.2 1.34-0.555s0.555-0.837 0.555-1.34c0-0.503-0.2-0.984-0.555-1.34s-0.837-0.555-1.34-0.555z"></path>
      </symbol>
      <symbol id="icon-previous" viewBox="0 0 20 20">
         <path fill="currentColor" d="M3.828 9l6.071-6.071-1.414-1.414-8.485 8.485 8.485 8.485 1.414-1.414-6.071-6.071h16.172v-2h-16.172z"></path>
      </symbol>
      <symbol id="icon-next" viewBox="0 0 20 20">
         <path fill="currentColor" d="M16.172 9l-6.071-6.071 1.414-1.414 8.485 8.485-8.485 8.485-1.414-1.414 6.071-6.071h-16.172v-2z"></path>
      </symbol>
      <symbol id="icon-delete" viewBox="0 0 29 32">
         <path fill="currentColor" d="M27.6 4.8h-6v-1.2c0-0.955-0.379-1.87-1.054-2.546s-1.591-1.054-2.546-1.054h-7.2c-0.955 0-1.87 0.379-2.546 1.054s-1.054 1.591-1.054 2.546v1.2h-6c-0.318 0-0.624 0.126-0.849 0.351s-0.351 0.53-0.351 0.849c0 0.318 0.126 0.623 0.351 0.849s0.53 0.351 0.849 0.351h1.2v21.6c0 0.636 0.253 1.247 0.703 1.697s1.061 0.703 1.697 0.703h19.2c0.636 0 1.247-0.253 1.697-0.703s0.703-1.061 0.703-1.697v-21.6h1.2c0.318 0 0.624-0.126 0.848-0.351s0.352-0.53 0.352-0.849-0.126-0.623-0.352-0.849c-0.225-0.225-0.53-0.351-0.848-0.351zM12 22.8c0 0.318-0.126 0.624-0.351 0.848s-0.53 0.352-0.849 0.352-0.623-0.126-0.849-0.352c-0.225-0.225-0.351-0.53-0.351-0.848v-9.6c0-0.318 0.126-0.623 0.351-0.849s0.53-0.351 0.849-0.351c0.318 0 0.623 0.126 0.849 0.351s0.351 0.53 0.351 0.849v9.6zM19.2 22.8c0 0.318-0.126 0.624-0.352 0.848s-0.53 0.352-0.848 0.352-0.624-0.126-0.848-0.352c-0.225-0.225-0.352-0.53-0.352-0.848v-9.6c0-0.318 0.126-0.623 0.352-0.849s0.53-0.351 0.848-0.351 0.624 0.126 0.848 0.351c0.225 0.225 0.352 0.53 0.352 0.849v9.6zM19.2 4.8h-9.6v-1.2c0-0.318 0.126-0.623 0.351-0.849s0.53-0.351 0.849-0.351h7.2c0.318 0 0.624 0.126 0.848 0.351s0.352 0.53 0.352 0.849v1.2z"></path>
      </symbol>
      <symbol id="promo-code" viewBox="0 0 32 32">
        <path fill="currentColor" d="M31.164 15.026l-14.189-14.189c-0.265-0.266-0.579-0.477-0.926-0.621s-0.719-0.217-1.094-0.216h-13.241c-0.455 0-0.891 0.181-1.212 0.502s-0.502 0.758-0.502 1.212v13.241c-0.001 0.375 0.072 0.747 0.216 1.094s0.355 0.662 0.621 0.926l14.189 14.189c0.536 0.536 1.262 0.836 2.020 0.836s1.484-0.301 2.020-0.836l12.099-12.099c0.536-0.536 0.836-1.262 0.836-2.020s-0.301-1.484-0.836-2.020zM17.046 28.336l-13.617-13.621v-11.286h11.286l13.617 13.617-11.286 11.29zM10.286 8c0 0.452-0.134 0.894-0.385 1.27s-0.608 0.669-1.026 0.842c-0.418 0.173-0.877 0.218-1.321 0.13s-0.851-0.306-1.17-0.626c-0.32-0.32-0.537-0.727-0.626-1.17s-0.043-0.903 0.13-1.321c0.173-0.418 0.466-0.775 0.842-1.026s0.818-0.385 1.27-0.385c0.606 0 1.188 0.241 1.616 0.669s0.669 1.010 0.669 1.616z"></path>
      </symbol>
      <symbol id="menu-burger" viewBox="0 0 41 32">
       <path fill="currentColor" d="M40 15.2c0 0.637-0.253 1.247-0.703 1.697s-1.060 0.703-1.697 0.703h-35.2c-0.637 0-1.247-0.253-1.697-0.703s-0.703-1.061-0.703-1.697c0-0.637 0.253-1.247 0.703-1.697s1.061-0.703 1.697-0.703h35.2c0.637 0 1.247 0.253 1.697 0.703s0.703 1.061 0.703 1.697zM2.4 4.8h35.2c0.637 0 1.247-0.253 1.697-0.703s0.703-1.061 0.703-1.697c0-0.637-0.253-1.247-0.703-1.697s-1.060-0.703-1.697-0.703h-35.2c-0.637 0-1.247 0.253-1.697 0.703s-0.703 1.061-0.703 1.697c0 0.637 0.253 1.247 0.703 1.697s1.061 0.703 1.697 0.703zM37.6 25.6h-35.2c-0.637 0-1.247 0.253-1.697 0.703s-0.703 1.060-0.703 1.697c0 0.637 0.253 1.247 0.703 1.697s1.061 0.703 1.697 0.703h35.2c0.637 0 1.247-0.253 1.697-0.703s0.703-1.060 0.703-1.697c0-0.637-0.253-1.247-0.703-1.697s-1.060-0.703-1.697-0.703z"></path>
     </symbol>
  </defs>
</svg>
